<?xml version="1.0" encoding="UTF-8"?>
<svg version="1.1" xmlns="http://www.w3.org/2000/svg" width="500" height="500">
<path d="M0 0 C165 0 330 0 500 0 C500 165 500 330 500 500 C335 500 170 500 0 500 C0 335 0 170 0 0 Z " fill="#080027" transform="translate(0,0)"/>
<path d="M0 0 C0.66 0.66 1.32 1.32 2 2 C1.625 5.625 1.625 5.625 1 9 C0.01 9.33 -0.98 9.66 -2 10 C-1.67 28.81 -1.34 47.62 -1 67 C0.65 66.01 2.3 65.02 4 64 C4.99 64 5.98 64 7 64 C6.95810547 62.82493896 6.91621094 61.64987793 6.87304688 60.43920898 C6.72768691 56.05819908 6.63620888 51.67739964 6.56054688 47.29467773 C6.52044013 45.40205995 6.46593712 43.50968813 6.39648438 41.61791992 C5.8295364 25.77255787 5.8295364 25.77255787 8.7878418 21.29248047 C10.98046875 19.45703125 10.98046875 19.45703125 13.18823242 18.17895508 C15.4597226 17.00330133 15.4597226 17.00330133 15.8125 13.25 C15.9053125 11.64125 15.9053125 11.64125 16 10 C17.1875 8.0625 17.1875 8.0625 19 7 C22.14485925 6.60689259 24.13281671 6.52444787 26.9375 8.0625 C28.66665678 11.21566824 27.8590699 13.62508255 27 17 C24 19 24 19 20.625 19.8125 C16.39800007 21.19720688 14.79635931 22.57443775 12 26 C11.22876561 29.17047234 11.22876561 29.17047234 11.29296875 32.61328125 C11.26396484 33.86044922 11.23496094 35.10761719 11.20507812 36.39257812 C11.19637695 38.33293945 11.19637695 38.33293945 11.1875 40.3125 C11.16236328 41.62541016 11.13722656 42.93832031 11.11132812 44.29101562 C11.05248032 47.52764489 11.01618063 50.76292218 11 54 C13.50147282 52.50547258 15.84454655 50.96839897 18 49 C18.71943757 46.39141325 18.71943757 46.39141325 18.375 43.6875 C18.44848978 40.03750761 18.53063697 38.53442325 20.97265625 35.75390625 C22.59960743 34.43120267 24.24409096 33.12974176 25.90625 31.8515625 C28.97616822 29.13674676 29.28901643 26.9499087 30 23 C32 21 32 21 35.5 20.6875 C37.2325 20.8421875 37.2325 20.8421875 39 21 C41 24 41 24 40.6875 27.625 C40 31 40 31 39 32 C37.989375 32.04125 36.97875 32.0825 35.9375 32.125 C31.56813378 32.74142511 28.71915866 34.77255972 25.5625 37.78125 C23.13532259 41.22784192 22.97344145 44.06093194 23.25390625 48.19921875 C24.5496628 53.06339386 27.55304408 56.43873176 31 60 C31 58.845 31 57.69 31 56.5 C31.59305336 51.3906172 34.47219751 48.8828626 38.08984375 45.46875 C40 44 40 44 42 44 C42.185625 42.329375 42.185625 42.329375 42.375 40.625 C43 37 43 37 45 35 C48.10347254 34.66984335 50.15781176 34.49468706 52.875 36.125 C54.54663625 38.91106042 54.46376624 40.81988862 54 44 C52.375 45.875 52.375 45.875 50 47 C49.071875 46.9175 48.14375 46.835 47.1875 46.75 C42.95402265 47.08203744 41.17929784 48.43235539 38.3984375 51.578125 C35.76148935 56.14490671 35.24914144 60.77126497 36.26708984 65.95117188 C38.0982294 71.07006699 41.94215562 75.25764683 45.46191406 79.31396484 C46.05327148 79.99668457 46.64462891 80.6794043 47.25390625 81.3828125 C47.80377197 81.98496582 48.3536377 82.58711914 48.92016602 83.20751953 C50 85 50 85 49.81933594 87.07641602 C48.5138699 90.14130484 46.23582413 91.72321174 43.6875 93.8125 C42.72199219 94.62332031 41.75648438 95.43414062 40.76171875 96.26953125 C38 98 38 98 35.76953125 97.76171875 C35.18558594 97.51035156 34.60164063 97.25898438 34 97 C30.92906034 97 29.72535705 98.84472295 27.5 100.875 C26.7059375 101.59429687 25.911875 102.31359375 25.09375 103.0546875 C23.70536683 104.34464052 22.34007213 105.65992787 21 107 C21.66 107.86625 22.32 108.7325 23 109.625 C25.16131826 113.27222457 25.63013226 114.85913089 25 119 C23.625 121.375 23.625 121.375 22 123 C21.34 123 20.68 123 20 123 C20.0825 123.9075 20.165 124.815 20.25 125.75 C20 129 20 129 18.375 131.375 C15.3962104 133.4131192 13.53677664 133.32152515 10 133 C9.79375 133.639375 9.5875 134.27875 9.375 134.9375 C8.92125 135.618125 8.4675 136.29875 8 137 C6.00239695 137.34740923 4.00212229 137.67966043 2 138 C1.34 138.680625 0.68 139.36125 0 140.0625 C-2 142 -2 142 -4.875 142.6875 C-8.46993167 141.89661503 -8.80156826 141.30803825 -10.9375 138.5 C-12.35959139 136.53866584 -12.35959139 136.53866584 -14 135 C-17.54178598 134.74996036 -17.54178598 134.74996036 -21 135 C-23.9375 133.125 -23.9375 133.125 -26 131 C-26 130.34 -26 129.68 -26 129 C-26.763125 128.9175 -27.52625 128.835 -28.3125 128.75 C-31 128 -31 128 -32.8125 126.1875 C-34 124 -34 124 -34 120 C-34.61875 119.71125 -35.2375 119.4225 -35.875 119.125 C-40.05230717 116.91348444 -40.59178067 114.3126717 -42 110 C-42.66 109.01 -43.32 108.02 -44 107 C-44.21314985 103.5896024 -44.084894 101.25468201 -43 98 C-43.38932856 95.85744207 -43.38932856 95.85744207 -44 94 C-46.475 94.99 -46.475 94.99 -49 96 C-50.70358187 93.92815703 -52.3872871 91.84457677 -54.0625 89.75 C-54.54783203 89.16347656 -55.03316406 88.57695312 -55.53320312 87.97265625 C-59.04792046 83.53563721 -59.04792046 83.53563721 -58.81445312 80.92602539 C-57.68092313 78.24544441 -55.69276231 77.34081347 -53.28613281 75.85473633 C-48.61402977 72.90474628 -45.50011077 70.69295448 -43.89453125 65.2578125 C-43.67412333 59.24127203 -43.95373408 54.20965594 -48.0625 49.5625 C-51.66862769 46.67320905 -54.41374532 46.64721118 -59 47 C-60.9375 45.875 -60.9375 45.875 -62 44 C-62.39310741 40.85514075 -62.47555213 38.86718329 -60.9375 36.0625 C-57.78433176 34.33334322 -55.37491745 35.1409301 -52 36 C-49.8480563 39.22791555 -49.79913557 40.28400809 -50 44 C-49.46375 44.20625 -48.9275 44.4125 -48.375 44.625 C-44.87168639 46.65323419 -41.99494988 48.44690299 -40 52 C-39.48973441 56.37891183 -39.64847418 60.612437 -40 65 C-36.40264178 63.67508012 -34.22054308 62.14895979 -32 59 C-30.28960905 52.14199012 -30.02533474 43.48151706 -33.56640625 37.23828125 C-37.62504474 33.44968916 -41.45437811 32.33273731 -47 32 C-49 30 -49 30 -49.25 26.5 C-49 23 -49 23 -47 21 C-40.93981481 20.44907407 -40.93981481 20.44907407 -38.1875 22.0625 C-37 24 -37 24 -36.3125 27.25 C-34.85763981 31.40674339 -34.32828724 31.60517675 -30.875 33.875 C-28.52655852 35.7020366 -27.18896623 36.99458999 -26.62988281 39.96923828 C-26.28776776 44.99745794 -26.59373732 49.98378436 -27 55 C-26.4225 54.505 -25.845 54.01 -25.25 53.5 C-23 52 -23 52 -19 52 C-18.9937209 47.79031105 -19.05343309 43.58402866 -19.125 39.375 C-19.12242187 38.18519531 -19.11984375 36.99539062 -19.1171875 35.76953125 C-19.13367312 28.36462164 -19.13367312 28.36462164 -22.7890625 22.23828125 C-26.27533939 19.79636359 -26.27533939 19.79636359 -30.25 18.8125 C-34 18 -34 18 -36 15 C-36.35384949 12.16920408 -36.3920891 10.63169911 -34.875 8.1875 C-32.12844028 6.44801218 -30.18153026 6.60230872 -27 7 C-25.1875 8.0625 -25.1875 8.0625 -24 10 C-23.938125 11.0725 -23.87625 12.145 -23.8125 13.25 C-23.44080635 16.98886204 -23.44080635 16.98886204 -21.19482422 18.29760742 C-20.4679541 18.74982666 -19.74108398 19.2020459 -18.9921875 19.66796875 C-15.87198045 22.28115517 -15.0750227 23.59096916 -14.32983398 27.65380859 C-14.07241363 32.12371439 -14.18123891 36.58981339 -14.3125 41.0625 C-14.3644054 43.37941214 -14.40415001 45.69433776 -14.41410828 48.01182556 C-14.42168529 49.44689251 -14.45349391 50.88211177 -14.51374817 52.31593323 C-14.56722481 58.00820981 -12.67987291 60.02296081 -9 64 C-8.8125 66.75 -8.8125 66.75 -9 69 C-8.01 69.99 -8.01 69.99 -7 71 C-6.67 50.87 -6.34 30.74 -6 10 C-6.99 9.67 -7.98 9.34 -9 9 C-10.32 2.64 -10.32 2.64 -9 0 C-5.82179635 -1.58910182 -3.364966 -0.7953556 0 0 Z " fill="#F0F0F2" transform="translate(254,151)"/>
<path d="M0 0 C2.05078125 0.03255208 4.1015625 0.06510417 6.15234375 0.09765625 C6.81234375 1.41765625 7.47234375 2.73765625 8.15234375 4.09765625 C8.72984375 3.76765625 9.30734375 3.43765625 9.90234375 3.09765625 C12.15234375 2.09765625 12.15234375 2.09765625 16.15234375 2.09765625 C18.40234375 3.09765625 18.40234375 3.09765625 20.15234375 4.09765625 C20.15234375 6.07765625 20.15234375 8.05765625 20.15234375 10.09765625 C21.54453125 9.97390625 21.54453125 9.97390625 22.96484375 9.84765625 C26.15234375 10.09765625 26.15234375 10.09765625 28.08984375 11.59765625 C29.68757763 15.35703008 28.88335644 18.11031432 28.15234375 22.09765625 C29.47234375 22.75765625 30.79234375 23.41765625 32.15234375 24.09765625 C32.33984375 27.47265625 32.33984375 27.47265625 32.15234375 31.09765625 C29.15234375 33.09765625 29.15234375 33.09765625 26.15234375 33.09765625 C26.66796875 33.65453125 27.18359375 34.21140625 27.71484375 34.78515625 C29.15234375 37.09765625 29.15234375 37.09765625 28.96484375 39.66015625 C28.15234375 42.09765625 28.15234375 42.09765625 26.15234375 45.09765625 C23.84234375 44.76765625 21.53234375 44.43765625 19.15234375 44.09765625 C19.30703125 45.48984375 19.30703125 45.48984375 19.46484375 46.91015625 C19.15234375 50.09765625 19.15234375 50.09765625 16.90234375 52.03515625 C14.15234375 53.09765625 14.15234375 53.09765625 11.90234375 52.97265625 C10.15234375 52.09765625 10.15234375 52.09765625 9.15234375 49.09765625 C8.16234375 49.09765625 7.17234375 49.09765625 6.15234375 49.09765625 C6.00796875 49.73703125 5.86359375 50.37640625 5.71484375 51.03515625 C5.15234375 53.09765625 5.15234375 53.09765625 4.15234375 54.09765625 C1.21484375 54.28515625 1.21484375 54.28515625 -1.84765625 54.09765625 C-3.98620475 51.95910775 -4.27420688 50.96490311 -4.84765625 48.09765625 C-5.92015625 48.34515625 -6.99265625 48.59265625 -8.09765625 48.84765625 C-11.84765625 49.09765625 -11.84765625 49.09765625 -14.34765625 47.53515625 C-15.84765625 45.09765625 -15.84765625 45.09765625 -15.59765625 41.84765625 C-15.35015625 40.94015625 -15.10265625 40.03265625 -14.84765625 39.09765625 C-15.63140625 39.03578125 -16.41515625 38.97390625 -17.22265625 38.91015625 C-19.84765625 38.09765625 -19.84765625 38.09765625 -21.22265625 35.78515625 C-21.86657652 33.01629911 -22.04015309 31.66611099 -20.84765625 29.09765625 C-19.85765625 28.76765625 -18.86765625 28.43765625 -17.84765625 28.09765625 C-19.15661345 24.97568147 -19.15661345 24.97568147 -21.84765625 23.09765625 C-20.97265625 17.34765625 -20.97265625 17.34765625 -19.84765625 15.09765625 C-17.86765625 15.09765625 -15.88765625 15.09765625 -13.84765625 15.09765625 C-14.11578125 14.02515625 -14.38390625 12.95265625 -14.66015625 11.84765625 C-14.84765625 8.09765625 -14.84765625 8.09765625 -12.84765625 5.53515625 C-9.84765625 4.09765625 -9.84765625 4.09765625 -6.03515625 4.84765625 C-4.45734375 5.46640625 -4.45734375 5.46640625 -2.84765625 6.09765625 C-2.86828125 5.29328125 -2.88890625 4.48890625 -2.91015625 3.66015625 C-2.82452531 0.14928781 -2.82452531 0.14928781 0 0 Z " fill="#11092F" transform="translate(244.84765625,295.90234375)"/>
<path d="M0 0 C1.11375 0.3403125 1.11375 0.3403125 2.25 0.6875 C2.58 1.6775 2.91 2.6675 3.25 3.6875 C2.6003125 4.12320313 1.950625 4.55890625 1.28125 5.0078125 C-3.94954661 8.46797277 -3.94954661 8.46797277 -6.5 13.875 C-5.45524352 17.79871345 -5.45524352 17.79871345 -2.75 20.6875 C2.29900351 21.6973007 5.06066799 20.43005607 9.1875 17.6875 C10.55284184 16.70281273 11.91098636 15.70770087 13.25 14.6875 C15.88450754 18.02821584 18.51478729 21.37206051 21.13671875 24.72265625 C23.14349965 27.28593414 25.16715924 29.83409281 27.20703125 32.37109375 C28.11739586 33.51806382 29.02756072 34.66519247 29.9375 35.8125 C30.5879126 36.60950317 30.5879126 36.60950317 31.25146484 37.42260742 C33.72251519 40.56405483 34.25 41.51379444 34.25 45.6875 C30.797777 45.40482669 29.52235964 44.9793139 27.1171875 42.40234375 C26.13105469 41.02755859 26.13105469 41.02755859 25.125 39.625 C23.21446016 36.88686506 23.21446016 36.88686506 21.25 34.6875 C20.26 34.6875 19.27 34.6875 18.25 34.6875 C19.24508729 39.75190576 22.58392887 43.06990652 25.83203125 46.91015625 C29.29104028 51.18188374 29.29104028 51.18188374 29.0546875 54.09375 C28.65636719 54.88265625 28.65636719 54.88265625 28.25 55.6875 C27.26 55.6875 26.27 55.6875 25.25 55.6875 C23.48648267 53.5971873 21.89060878 51.53545263 20.3125 49.3125 C16.68430254 43.94826168 16.68430254 43.94826168 11.25 40.6875 C12.49673875 46.09003458 15.25658092 49.42984924 18.7890625 53.5390625 C20.25 55.6875 20.25 55.6875 20.25 59.6875 C17.56885428 59.61089584 15.82482858 59.24926429 13.875 57.34375 C11.39870717 54.10098558 10.04627645 51.39609494 9.3125 47.375 C8.961875 46.158125 8.61125 44.94125 8.25 43.6875 C5.33333333 42.4375 5.33333333 42.4375 2.25 41.6875 C0.5 39.125 0.5 39.125 -0.75 36.6875 C-1.41 36.3575 -2.07 36.0275 -2.75 35.6875 C-3.41666667 33.6875 -4.08333333 31.6875 -4.75 29.6875 C-5.41 29.3575 -6.07 29.0275 -6.75 28.6875 C-7.2140625 26.9859375 -7.2140625 26.9859375 -7.6875 25.25 C-8.40621357 21.45533002 -8.40621357 21.45533002 -11.75 19.6875 C-15.20144071 19.32032546 -17.03658105 19.19829843 -19.9375 21.1875 C-20.535625 21.6825 -21.13375 22.1775 -21.75 22.6875 C-22.74 22.6875 -23.73 22.6875 -24.75 22.6875 C-25.296875 20.13671875 -25.296875 20.13671875 -24.75 16.6875 C-22.15303272 13.87255623 -19.10197617 11.72895067 -16 9.5 C-15.175 8.88447266 -14.35 8.26894531 -13.5 7.63476562 C-11.95846402 6.48731586 -10.411186 5.34751106 -8.85644531 4.21801758 C-7.42383379 3.17709945 -6.02224405 2.09240966 -4.65136719 0.97143555 C-2.75 -0.3125 -2.75 -0.3125 0 0 Z " fill="#0E072D" transform="translate(239.75,223.3125)"/>
<path d="M0 0 C2.05078125 0.03255208 4.1015625 0.06510417 6.15234375 0.09765625 C6.81234375 1.41765625 7.47234375 2.73765625 8.15234375 4.09765625 C8.72984375 3.76765625 9.30734375 3.43765625 9.90234375 3.09765625 C12.15234375 2.09765625 12.15234375 2.09765625 16.15234375 2.09765625 C18.40234375 3.09765625 18.40234375 3.09765625 20.15234375 4.09765625 C20.15234375 6.07765625 20.15234375 8.05765625 20.15234375 10.09765625 C21.54453125 9.97390625 21.54453125 9.97390625 22.96484375 9.84765625 C26.15234375 10.09765625 26.15234375 10.09765625 28.08984375 11.59765625 C29.68757763 15.35703008 28.88335644 18.11031432 28.15234375 22.09765625 C29.47234375 22.75765625 30.79234375 23.41765625 32.15234375 24.09765625 C32.33984375 27.47265625 32.33984375 27.47265625 32.15234375 31.09765625 C29.15234375 33.09765625 29.15234375 33.09765625 26.15234375 33.09765625 C26.66796875 33.65453125 27.18359375 34.21140625 27.71484375 34.78515625 C29.15234375 37.09765625 29.15234375 37.09765625 28.96484375 39.66015625 C28.15234375 42.09765625 28.15234375 42.09765625 26.15234375 45.09765625 C23.84234375 44.76765625 21.53234375 44.43765625 19.15234375 44.09765625 C19.30703125 45.48984375 19.30703125 45.48984375 19.46484375 46.91015625 C19.15234375 50.09765625 19.15234375 50.09765625 16.90234375 52.03515625 C14.15234375 53.09765625 14.15234375 53.09765625 11.90234375 52.97265625 C10.15234375 52.09765625 10.15234375 52.09765625 9.15234375 49.09765625 C8.16234375 49.09765625 7.17234375 49.09765625 6.15234375 49.09765625 C6.00796875 49.73703125 5.86359375 50.37640625 5.71484375 51.03515625 C5.15234375 53.09765625 5.15234375 53.09765625 4.15234375 54.09765625 C1.21484375 54.28515625 1.21484375 54.28515625 -1.84765625 54.09765625 C-3.98620475 51.95910775 -4.27420688 50.96490311 -4.84765625 48.09765625 C-5.92015625 48.34515625 -6.99265625 48.59265625 -8.09765625 48.84765625 C-11.84765625 49.09765625 -11.84765625 49.09765625 -14.34765625 47.53515625 C-15.84765625 45.09765625 -15.84765625 45.09765625 -15.59765625 41.84765625 C-15.35015625 40.94015625 -15.10265625 40.03265625 -14.84765625 39.09765625 C-15.63140625 39.03578125 -16.41515625 38.97390625 -17.22265625 38.91015625 C-19.84765625 38.09765625 -19.84765625 38.09765625 -21.22265625 35.78515625 C-21.86657652 33.01629911 -22.04015309 31.66611099 -20.84765625 29.09765625 C-19.85765625 28.76765625 -18.86765625 28.43765625 -17.84765625 28.09765625 C-19.15661345 24.97568147 -19.15661345 24.97568147 -21.84765625 23.09765625 C-20.97265625 17.34765625 -20.97265625 17.34765625 -19.84765625 15.09765625 C-17.86765625 15.09765625 -15.88765625 15.09765625 -13.84765625 15.09765625 C-14.11578125 14.02515625 -14.38390625 12.95265625 -14.66015625 11.84765625 C-14.84765625 8.09765625 -14.84765625 8.09765625 -12.84765625 5.53515625 C-9.84765625 4.09765625 -9.84765625 4.09765625 -6.03515625 4.84765625 C-4.45734375 5.46640625 -4.45734375 5.46640625 -2.84765625 6.09765625 C-2.86828125 5.29328125 -2.88890625 4.48890625 -2.91015625 3.66015625 C-2.82452531 0.14928781 -2.82452531 0.14928781 0 0 Z M1.15234375 4.09765625 C1.04921875 4.71640625 0.94609375 5.33515625 0.83984375 5.97265625 C0.15234375 8.09765625 0.15234375 8.09765625 -2.84765625 10.09765625 C-6.53515625 9.72265625 -6.53515625 9.72265625 -9.84765625 9.09765625 C-9.80640625 10.02578125 -9.76515625 10.95390625 -9.72265625 11.91015625 C-9.84765625 15.09765625 -9.84765625 15.09765625 -11.84765625 18.09765625 C-14.47265625 18.78515625 -14.47265625 18.78515625 -16.84765625 19.09765625 C-16.51765625 19.61328125 -16.18765625 20.12890625 -15.84765625 20.66015625 C-14.52754748 23.87792137 -14.7152352 26.65470905 -14.84765625 30.09765625 C-15.50765625 30.42765625 -16.16765625 30.75765625 -16.84765625 31.09765625 C-16.84765625 32.08765625 -16.84765625 33.07765625 -16.84765625 34.09765625 C-15.19765625 34.09765625 -13.54765625 34.09765625 -11.84765625 34.09765625 C-10.84765625 41.84765625 -10.84765625 41.84765625 -10.84765625 44.09765625 C-9.75453125 44.07703125 -8.66140625 44.05640625 -7.53515625 44.03515625 C-3.84765625 44.09765625 -3.84765625 44.09765625 -0.84765625 45.09765625 C-0.16015625 47.16015625 -0.16015625 47.16015625 0.15234375 49.09765625 C1.63734375 48.60265625 1.63734375 48.60265625 3.15234375 48.09765625 C3.48234375 47.43765625 3.81234375 46.77765625 4.15234375 46.09765625 C6.46234375 46.09765625 8.77234375 46.09765625 11.15234375 46.09765625 C11.48234375 46.75765625 11.81234375 47.41765625 12.15234375 48.09765625 C12.81234375 48.09765625 13.47234375 48.09765625 14.15234375 48.09765625 C14.39984375 46.67453125 14.39984375 46.67453125 14.65234375 45.22265625 C16.15234375 42.09765625 16.15234375 42.09765625 18.06640625 41.25390625 C20.07419239 40.77147 22.11375659 40.42646063 24.15234375 40.09765625 C23.87390625 38.17953125 23.87390625 38.17953125 23.58984375 36.22265625 C23.02734375 32.34765625 23.02734375 32.34765625 24.15234375 30.09765625 C26.21484375 29.47265625 26.21484375 29.47265625 28.15234375 29.09765625 C28.15234375 28.10765625 28.15234375 27.11765625 28.15234375 26.09765625 C26.83234375 26.09765625 25.51234375 26.09765625 24.15234375 26.09765625 C22.90234375 18.47265625 22.90234375 18.47265625 25.15234375 15.09765625 C24.03859375 14.80890625 22.92484375 14.52015625 21.77734375 14.22265625 C18.15234375 13.09765625 18.15234375 13.09765625 16.15234375 11.09765625 C15.52734375 8.47265625 15.52734375 8.47265625 15.15234375 6.09765625 C14.16234375 6.75765625 13.17234375 7.41765625 12.15234375 8.09765625 C9.15234375 8.47265625 9.15234375 8.47265625 6.15234375 8.09765625 C4.40234375 6.09765625 4.40234375 6.09765625 3.15234375 4.09765625 C2.49234375 4.09765625 1.83234375 4.09765625 1.15234375 4.09765625 Z " fill="#EEEEF0" transform="translate(244.84765625,295.90234375)"/>
<path d="M0 0 C7.65485877 -1.23181635 7.65485877 -1.23181635 12 0 C16.04786663 3.82895139 18.45895747 9.11709404 21 14 C21.33 14.33 21.66 14.66 22 15 C22.63808594 14.00097656 23.27617187 13.00195312 23.93359375 11.97265625 C24.76816273 10.66922829 25.60280177 9.36584519 26.4375 8.0625 C26.85837891 7.40314453 27.27925781 6.74378906 27.71289062 6.06445312 C30.88671875 1.11328125 30.88671875 1.11328125 32 0 C36.00220653 -0.14355117 39.99441683 -0.04216403 44 0 C44 7.59 44 15.18 44 23 C40.7 23 37.4 23 34 23 C33.505 17.06 33.505 17.06 33 11 C32.38125 12.299375 32.38125 12.299375 31.75 13.625 C27.32849125 22.15219544 27.32849125 22.15219544 24.03515625 24.25390625 C21.33133917 24.67687962 20.34877814 24.46077128 18 23 C14.81899498 18.90547559 12.37519908 14.5987897 10 10 C9.67 14.29 9.34 18.58 9 23 C6.03 23 3.06 23 0 23 C0 15.41 0 7.82 0 0 Z " fill="#FAFAFB" transform="translate(213,357)"/>
<path d="M0 0 C3.45446451 2.56870438 6.03154663 4.53419028 6.8203125 8.9609375 C7.01848354 12.93756972 6.75921321 15.25248071 4.75 18.75 C0.11717675 22.8819775 -4.55090444 23.15272876 -10.5625 23.125 C-11.26117188 23.14111328 -11.95984375 23.15722656 -12.6796875 23.17382812 C-17.17185719 23.17806602 -19.98921748 22.55355776 -23.5625 19.8125 C-25.90022514 16.91049637 -26.52724659 15.08949106 -27 11.375 C-26.47129625 7.0698409 -25.38907232 5.08537321 -22.5625 1.8125 C-16.40128542 -2.92689583 -7.08230981 -2.36076994 0 0 Z " fill="#F5F4F6" transform="translate(371.5625,357.1875)"/>
<path d="M0 0 C2.80125118 1.54246109 3.50236711 2.37855067 5.375 5.1875 C6.04124845 9.26213524 6.31996094 13.43106703 4.32421875 17.140625 C2.56183214 19.2825226 0.86710321 20.9414484 -1.625 22.1875 C-4.39046142 22.36544636 -7.10763275 22.46511722 -9.875 22.5 C-10.62652344 22.52900391 -11.37804687 22.55800781 -12.15234375 22.58789062 C-17.43858573 22.64785672 -20.48625687 21.76813989 -24.625 18.1875 C-26.9419675 14.76946631 -27.21536628 11.50119664 -27.1484375 7.4453125 C-26.33096944 3.91921893 -24.25780443 2.4009373 -21.44921875 0.28125 C-15.29761372 -3.40707849 -6.34060411 -3.04814363 0 0 Z " fill="#F6F6F7" transform="translate(202.625,357.8125)"/>
<path d="M0 0 C2.80125118 1.54246109 3.50236711 2.37855067 5.375 5.1875 C6.04124845 9.26213524 6.31996094 13.43106703 4.32421875 17.140625 C2.56183214 19.2825226 0.86710321 20.9414484 -1.625 22.1875 C-4.39046142 22.36544636 -7.10763275 22.46511722 -9.875 22.5 C-10.62652344 22.52900391 -11.37804687 22.55800781 -12.15234375 22.58789062 C-17.43858573 22.64785672 -20.48625687 21.76813989 -24.625 18.1875 C-26.9419675 14.76946631 -27.21536628 11.50119664 -27.1484375 7.4453125 C-26.33096944 3.91921893 -24.25780443 2.4009373 -21.44921875 0.28125 C-15.29761372 -3.40707849 -6.34060411 -3.04814363 0 0 Z " fill="#F6F6F7" transform="translate(302.625,117.8125)"/>
<path d="M0 0 C2.97 0 5.94 0 9 0 C11 4 13 8 15 12 C16.98 8.04 18.96 4.08 21 0 C23.31 0 25.62 0 28 0 C29.65 3.96 31.3 7.92 33 12 C34.71017726 9.4347341 35.90417811 7.12039035 37.125 4.3125 C37.74375 2.889375 38.3625 1.46625 39 0 C42.3 0 45.6 0 49 0 C45.84693776 7.99426843 42.27191474 15.54249935 38 23 C35.36 23 32.72 23 30 23 C29.16235732 21.04350603 28.33000941 19.08474444 27.5 17.125 C27.0359375 16.03445312 26.571875 14.94390625 26.09375 13.8203125 C25 11 25 11 25 9 C24.34 9 23.68 9 23 9 C22.896875 9.825 22.79375 10.65 22.6875 11.5 C21.88353944 15.59289012 20.53647842 19.12540225 19 23 C16.03 23 13.06 23 10 23 C7.33333333 17.66666667 4.66666667 12.33333333 2 7 C1.62987793 6.32163086 1.25975586 5.64326172 0.87841797 4.94433594 C0 3 0 3 0 0 Z " fill="#F7F7F8" transform="translate(311,117)"/>
<path d="M0 0 C2.83579547 1.90356845 4.84626657 4.37059539 7 7 C7.80566406 7.96550781 8.61132812 8.93101562 9.44140625 9.92578125 C15.82790786 17.89585683 15.82790786 17.89585683 16.48828125 22.1328125 C15.89145492 25.63737671 14.98351473 26.60274266 12.25 28.8125 C11.55390625 29.39644531 10.8578125 29.98039062 10.140625 30.58203125 C8.01412157 31.99064575 6.45620605 32.45856787 4 33 C2.00274033 30.65932012 0.02801856 28.3046001 -1.9375 25.9375 C-2.78344727 24.95233398 -2.78344727 24.95233398 -3.64648438 23.94726562 C-7.2293205 19.59208159 -8.77151563 16.66788656 -9 11 C-13.30230507 12.5804386 -16.28145781 14.09016892 -19.625 17.25 C-22.64222756 20.01522436 -22.64222756 20.01522436 -25.9375 19.875 C-26.9584375 19.441875 -26.9584375 19.441875 -28 19 C-27.46222907 15.19083264 -26.04978608 13.87212052 -23.03515625 11.58203125 C-21.83536133 10.66067383 -21.83536133 10.66067383 -20.61132812 9.72070312 C-19.77021484 9.09099609 -18.92910156 8.46128906 -18.0625 7.8125 C-17.22525391 7.17119141 -16.38800781 6.52988281 -15.52539062 5.86914062 C-6.67305741 -0.87515507 -6.67305741 -0.87515507 0 0 Z " fill="#0D052C" transform="translate(266,220)"/>
<path d="M0 0 C3.3 0 6.6 0 10 0 C10 7.92 10 15.84 10 24 C1.67375055 24.96409204 1.67375055 24.96409204 -3 24 C-6.7888151 20.82501528 -9.36983994 17.15890298 -12 13 C-12.66 12.01 -13.32 11.02 -14 10 C-14.33 14.62 -14.66 19.24 -15 24 C-18.3 24 -21.6 24 -25 24 C-25 16.41 -25 8.82 -25 1 C-20.44636761 0.41755865 -17.41047464 0.04750313 -13 1 C-8.05506988 4.92454772 -4.48216737 9.77674894 -1 15 C-0.67 10.05 -0.34 5.1 0 0 Z " fill="#F4F4F6" transform="translate(407,356)"/>
<path d="M0 0 C8.91 0 17.82 0 27 0 C27 2.31 27 4.62 27 7 C21.39 7 15.78 7 10 7 C10 7.99 10 8.98 10 10 C14.62 10 19.24 10 24 10 C24 11.65 24 13.3 24 15 C19.38 15 14.76 15 10 15 C10 15.99 10 16.98 10 18 C15.94 18 21.88 18 28 18 C28 19.98 28 21.96 28 24 C18.76 24 9.52 24 0 24 C0 16.08 0 8.16 0 0 Z " fill="#EDEDEF" transform="translate(154,116)"/>
<path d="M0 0 C4.69241302 2.0733918 7.71319554 5.42639108 10 10 C10.73152811 15.12069679 9.23585644 18.17641944 6.41015625 22.29296875 C4.39302978 24.73475343 3.14924792 25.49898329 0 26 C-4.5595402 26.04160164 -7.98464644 25.60489148 -11.9375 23.25 C-15.1163333 19.78218186 -15.86778091 17.2120083 -16.375 12.5625 C-15.82358232 7.32403208 -13.73772282 4.40896445 -9.6875 1.125 C-6.20647239 -0.33217435 -3.74471902 -0.40121989 0 0 Z " fill="#F1F0F3" transform="translate(253,310)"/>
<path d="M0 0 C2.375 1.8125 2.375 1.8125 4.375 6.8125 C-1.235 6.8125 -6.845 6.8125 -12.625 6.8125 C-10.5625 7.080625 -8.5 7.34875 -6.375 7.625 C-1.89815343 8.20699005 0.9850192 8.74976982 4.375 11.8125 C3.76476378 18.28100394 3.76476378 18.28100394 2 20.6875 C-3.39694494 24.4238465 -11.35815041 23.43244641 -17.625 22.8125 C-20.60650778 21.46730794 -21.56479325 20.43458132 -23.625 17.8125 C-23.625 17.1525 -23.625 16.4925 -23.625 15.8125 C-12.10335991 15.62798975 -12.10335991 15.62798975 -6.625 16.8125 C-6.625 15.8225 -6.625 14.8325 -6.625 13.8125 C-7.43324219 13.84730469 -8.24148437 13.88210937 -9.07421875 13.91796875 C-10.14285156 13.94503906 -11.21148437 13.97210938 -12.3125 14 C-13.89611328 14.05220703 -13.89611328 14.05220703 -15.51171875 14.10546875 C-19.02881892 13.77449947 -20.85020079 12.97067716 -23.625 10.8125 C-24.25 7.9375 -24.25 7.9375 -23.625 4.8125 C-17.57403985 -2.54677586 -8.7461541 -2.86511945 0 0 Z " fill="#F4F4F6" transform="translate(114.625,117.1875)"/>
<path d="M0 0 C3.39611234 1.20708965 5.4168694 2.90936667 7.14453125 6.140625 C7.42683594 6.75421875 7.70914062 7.3678125 8 8 C1.88909517 8.09945415 -3.97403427 8.0712828 -10 7 C-10 7.66 -10 8.32 -10 9 C-8.2365625 8.938125 -8.2365625 8.938125 -6.4375 8.875 C-1.56428928 8.88364044 2.80374378 9.62733986 7 12.25 C8 14 8 14 7.875 17 C6.99393555 20.02079239 6.49565487 21.17625221 4 23 C0.40998391 24.19667203 -2.5904839 24.20538881 -6.375 24.25 C-7.68210937 24.27578125 -8.98921875 24.3015625 -10.3359375 24.328125 C-14.17692965 23.98415555 -16.05132175 23.45171001 -19 21 C-19.33 19.68 -19.66 18.36 -20 17 C-14.72 17 -9.44 17 -4 17 C-3.67 16.34 -3.34 15.68 -3 15 C-3.80824219 15.03480469 -4.61648438 15.06960938 -5.44921875 15.10546875 C-6.51785156 15.13253906 -7.58648437 15.15960938 -8.6875 15.1875 C-10.27111328 15.23970703 -10.27111328 15.23970703 -11.88671875 15.29296875 C-15.40381892 14.96199947 -17.22520079 14.15817716 -20 12 C-20.625 9.125 -20.625 9.125 -20 6 C-14.13882993 -0.9408593 -8.71968811 -0.77343528 0 0 Z " fill="#F5F4F6" transform="translate(441,356)"/>
<path d="M0 0 C3.39611234 1.20708965 5.4168694 2.90936667 7.14453125 6.140625 C7.42683594 6.75421875 7.70914063 7.3678125 8 8 C1.88909517 8.09945415 -3.97403427 8.0712828 -10 7 C-10 7.66 -10 8.32 -10 9 C-8.2365625 8.938125 -8.2365625 8.938125 -6.4375 8.875 C-1.56428928 8.88364044 2.80374378 9.62733986 7 12.25 C8 14 8 14 7.875 17 C6.99393555 20.02079239 6.49565487 21.17625221 4 23 C0.40998391 24.19667203 -2.5904839 24.20538881 -6.375 24.25 C-7.68210938 24.27578125 -8.98921875 24.3015625 -10.3359375 24.328125 C-14.17692965 23.98415555 -16.05132175 23.45171001 -19 21 C-19.33 19.68 -19.66 18.36 -20 17 C-14.72 17 -9.44 17 -4 17 C-3.67 16.34 -3.34 15.68 -3 15 C-3.80824219 15.03480469 -4.61648437 15.06960937 -5.44921875 15.10546875 C-6.51785156 15.13253906 -7.58648437 15.15960938 -8.6875 15.1875 C-10.27111328 15.23970703 -10.27111328 15.23970703 -11.88671875 15.29296875 C-15.40381892 14.96199947 -17.22520079 14.15817716 -20 12 C-20.625 9.125 -20.625 9.125 -20 6 C-14.13882993 -0.9408593 -8.71968811 -0.77343528 0 0 Z " fill="#F5F4F6" transform="translate(142,116)"/>
<path d="M0 0 C3.3 0 6.6 0 10 0 C10.06058594 1.05960937 10.12117188 2.11921875 10.18359375 3.2109375 C10.26800127 4.59897221 10.35264917 5.98699232 10.4375 7.375 C10.47681641 8.07367188 10.51613281 8.77234375 10.55664062 9.4921875 C10.74280134 13.37360492 10.74280134 13.37360492 12 17 C13.99954746 17.04254356 16.00041636 17.04080783 18 17 C20.05922402 14.94077598 19.41427579 10.78291876 19.5625 7.9375 C19.60568359 7.17888672 19.64886719 6.42027344 19.69335938 5.63867188 C19.79973633 3.75934562 19.90039934 1.87969756 20 0 C23.3 0 26.6 0 30 0 C30.13539281 2.89740622 30.23426829 5.78845621 30.3125 8.6875 C30.35439453 9.50412109 30.39628906 10.32074219 30.43945312 11.16210938 C30.5290186 15.58664375 30.4598724 17.40455383 27.66796875 21.01953125 C21.72446496 25.4314733 14.07938403 24.69345958 7 24 C3.99734854 22.67062098 3.08604956 21.63823914 1 19 C-0.25433458 15.23699626 -0.10695422 11.72789091 -0.0625 7.8125 C-0.05798828 7.06291016 -0.05347656 6.31332031 -0.04882812 5.54101562 C-0.03706354 3.69397617 -0.01912865 1.84697787 0 0 Z " fill="#F2F2F4" transform="translate(113,356)"/>
<path d="M0 0 C3.18547826 0.41401476 4.56888417 1.01748706 6.8828125 3.26171875 C8.76334025 5.88012173 10.34789856 8.57091335 11.9375 11.375 C13.24420736 13.37878944 14.5565733 15.37890198 15.875 17.375 C18.9375 22.11346154 18.9375 22.11346154 18.9375 24.375 C15.6375 24.375 12.3375 24.375 8.9375 24.375 C8.6075 23.055 8.2775 21.735 7.9375 20.375 C5.47741222 20.46179142 3.02106483 20.56860955 0.5625 20.6875 C-0.13617188 20.71005859 -0.83484375 20.73261719 -1.5546875 20.75585938 C-3.83538941 20.84484296 -3.83538941 20.84484296 -7.0625 21.375 C-7.7225 22.365 -8.3825 23.355 -9.0625 24.375 C-11.4453125 24.66796875 -11.4453125 24.66796875 -14.1875 24.5625 C-15.09757812 24.53542969 -16.00765625 24.50835937 -16.9453125 24.48046875 C-17.64398438 24.44566406 -18.34265625 24.41085937 -19.0625 24.375 C-17.13490915 20.6658479 -15.11366879 17.01713946 -13.0625 13.375 C-12.15757812 11.69083984 -12.15757812 11.69083984 -11.234375 9.97265625 C-5.75255912 0.60231651 -5.75255912 0.60231651 0 0 Z " fill="#F7F7F8" transform="translate(279.0625,355.625)"/>
<path d="M0 0 C3.10003249 0.03421791 4.70496861 0.06813559 7.11279297 2.07128906 C8.68056798 4.20703824 9.9779525 6.36943051 11.24609375 8.6953125 C11.70048828 9.45585938 12.15488281 10.21640625 12.62304688 11 C15.04156563 15.09559381 17.23613837 19.288606 19.30859375 23.5703125 C17.6844063 23.65122221 16.0590763 23.70946245 14.43359375 23.7578125 C13.52867188 23.79261719 12.62375 23.82742187 11.69140625 23.86328125 C10.51191406 23.71826172 10.51191406 23.71826172 9.30859375 23.5703125 C8.64859375 22.5803125 7.98859375 21.5903125 7.30859375 20.5703125 C4.69897275 20.18619975 2.30278635 19.96738053 -0.31640625 19.8828125 C-1.0228125 19.84865234 -1.72921875 19.81449219 -2.45703125 19.77929688 C-4.20126313 19.69679942 -5.9463102 19.63187915 -7.69140625 19.5703125 C-8.02140625 20.8903125 -8.35140625 22.2103125 -8.69140625 23.5703125 C-12.32140625 23.5703125 -15.95140625 23.5703125 -19.69140625 23.5703125 C-18.03158675 20.96202471 -16.37163236 18.35382437 -14.7109375 15.74609375 C-13.37229841 13.64103847 -12.03632736 11.53428399 -10.703125 9.42578125 C-10.08050781 8.44222656 -9.45789062 7.45867187 -8.81640625 6.4453125 C-8.24148437 5.53523438 -7.6665625 4.62515625 -7.07421875 3.6875 C-4.90468067 0.36577786 -3.96305039 0.2834186 0 0 Z " fill="#F7F7F8" transform="translate(69.69140625,116.4296875)"/>
<path d="M0 0 C2.80941419 0.26057184 4.39483059 0.55872527 6.60253906 2.33178711 C8.05012167 4.18260992 9.18065325 6.05062046 10.3046875 8.11328125 C10.70300781 8.7784375 11.10132812 9.44359375 11.51171875 10.12890625 C12.29705492 11.44209132 13.06800299 12.76400432 13.82324219 14.09472656 C14.88343553 15.90912628 16.02291784 17.62838895 17.21875 19.35546875 C18.9296875 21.98828125 18.9296875 21.98828125 18.9296875 23.98828125 C15.6296875 23.98828125 12.3296875 23.98828125 8.9296875 23.98828125 C8.5996875 22.66828125 8.2696875 21.34828125 7.9296875 19.98828125 C2.6496875 19.98828125 -2.6303125 19.98828125 -8.0703125 19.98828125 C-8.4003125 21.30828125 -8.7303125 22.62828125 -9.0703125 23.98828125 C-12.3703125 23.98828125 -15.6703125 23.98828125 -19.0703125 23.98828125 C-17.10815509 18.82968786 -14.48831477 14.34384802 -11.5703125 9.67578125 C-11.09078125 8.83982422 -10.61125 8.00386719 -10.1171875 7.14257812 C-7.3165024 2.72139352 -5.40308273 0.40641322 0 0 Z " fill="#F8F7F9" transform="translate(92.0703125,356.01171875)"/>
<path d="M0 0 C8.91 0 17.82 0 27 0 C27 2.31 27 4.62 27 7 C21.39 7 15.78 7 10 7 C10 7.99 10 8.98 10 10 C14.62 10 19.24 10 24 10 C24 11.65 24 13.3 24 15 C19.38 15 14.76 15 10 15 C10 17.97 10 20.94 10 24 C6.7 24 3.4 24 0 24 C0 16.08 0 8.16 0 0 Z " fill="#EAE9EC" transform="translate(216,116)"/>
<path d="M0 0 C1.96283128 2.33237667 3.73744735 4.6473884 5.5 7.125 C6.5645445 8.59119729 7.63099383 10.05601322 8.69921875 11.51953125 C9.24239746 12.26541504 9.78557617 13.01129883 10.34521484 13.77978516 C11.94042427 15.92006761 13.58563041 18.0032493 15.26953125 20.07421875 C15.78128906 20.70505371 16.29304688 21.33588867 16.8203125 21.98583984 C17.80103492 23.18639042 18.78913758 24.38095668 19.78515625 25.56884766 C21.11328125 27.20703125 21.11328125 27.20703125 23 30 C21.76210371 33.71368887 20.14775123 34.77354181 17 37 C16.34 37 15.68 37 15 37 C13.10763873 34.66112652 11.32387632 32.31005566 9.5625 29.875 C6.35848758 25.50602593 3.1552317 21.15031631 -0.23828125 16.92578125 C-0.74496338 16.29494629 -1.25164551 15.66411133 -1.77368164 15.01416016 C-2.74258776 13.81532511 -3.71687855 12.62081799 -4.69702148 11.43115234 C-8 7.32765561 -8 7.32765561 -8 4 C-3.77142857 0 -3.77142857 0 0 0 Z " fill="#10082E" transform="translate(275,206)"/>
<path d="M0 0 C2.1875 2.25 2.1875 2.25 4 5 C3.9609375 6.890625 3.9609375 6.890625 3 9 C0.62109375 11.15625 0.62109375 11.15625 -2.5625 13.5 C-3.40977661 14.13107666 -3.40977661 14.13107666 -4.27416992 14.77490234 C-5.50715016 15.69233709 -6.74339648 16.60539442 -7.98242188 17.51464844 C-10.88294059 19.65002548 -13.75720356 21.8198471 -16.63452148 23.98632812 C-19.75113518 26.33121223 -22.87549438 28.66564536 -26 31 C-29.77070649 29.3327868 -31.0709374 27.66521894 -33 24 C-3.76970634 0 -3.76970634 0 0 0 Z " fill="#0E072C" transform="translate(234,209)"/>
<path d="M0 0 C9.24 0 18.48 0 28 0 C28 1.98 28 3.96 28 6 C25.03 6 22.06 6 19 6 C19 11.61 19 17.22 19 23 C15.7 23 12.4 23 9 23 C9 17.39 9 11.78 9 6 C6.03 6 3.06 6 0 6 C0 4.02 0 2.04 0 0 Z " fill="#F6F5F7" transform="translate(300,357)"/>
<path d="M0 0 C3.3 0 6.6 0 10 0 C10 5.61 10 11.22 10 17 C15.61 17 21.22 17 27 17 C27 18.98 27 20.96 27 23 C18.09 23 9.18 23 0 23 C0 15.41 0 7.82 0 0 Z " fill="#F5F5F6" transform="translate(247,117)"/>
<path d="M0 0 C9.24 0 18.48 0 28 0 C28 1.65 28 3.3 28 5 C25.03 5 22.06 5 19 5 C19 10.94 19 16.88 19 23 C15.7 23 12.4 23 9 23 C9 17.39 9 11.78 9 6 C6.03 6 3.06 6 0 6 C0 4.02 0 2.04 0 0 Z " fill="#F6F6F7" transform="translate(184,117)"/>
<path d="M0 0 C8.91 0 17.82 0 27 0 C27 1.65 27 3.3 27 5 C24.03 5 21.06 5 18 5 C18 10.94 18 16.88 18 23 C15.03 23 12.06 23 9 23 C9 17.06 9 11.12 9 5 C6.03 5 3.06 5 0 5 C0 3.35 0 1.7 0 0 Z " fill="#FFFFFF" transform="translate(146,357)"/>
<path d="M0 0 C2.96326994 2.10548127 3.83222327 3.47429959 4.9375 6.9375 C5.0128328 10.62880732 4.24574926 12.1126081 2 15 C-1.51253146 17.34168764 -2.86469356 17.49623677 -7 17 C-9.69990662 15.20006226 -11.5418865 13.916227 -13 11 C-13.43023798 7.12785818 -13.31669086 5.47503629 -11.125 2.1875 C-7.38445041 -1.66306575 -5.14450674 -1.1530791 0 0 Z " fill="#130B31" transform="translate(254,315)"/>
<path d="M0 0 C2.97 0 5.94 0 9 0 C9 7.59 9 15.18 9 23 C6.03 23 3.06 23 0 23 C0 15.41 0 7.82 0 0 Z " fill="#FFFFFF" transform="translate(332,357)"/>
<path d="M0 0 C2 2 2 2 2.3125 4.9375 C2 8 2 8 0.9375 9.875 C-2.1069286 11.64273274 -4.5631012 11.36823916 -8 11 C-9.9375 9.8125 -9.9375 9.8125 -11 8 C-11.41826612 5.21155919 -11.36703913 3.66525842 -10 1.1875 C-6.67642865 -0.78587049 -3.81941755 -0.30312838 0 0 Z " fill="#10082E" transform="translate(366,363)"/>
<path d="M0 0 C2.56231382 0.07919879 3.85022116 0.19671154 6.125 1.4375 C7.57566732 4.33883464 6.96701694 6.27590742 6.0625 9.3125 C2.59326119 11.62532587 1.14044425 11.73728586 -2.9375 11.3125 C-4.8125 10.1875 -4.8125 10.1875 -5.9375 8.3125 C-6.25 5.25 -6.25 5.25 -5.9375 2.3125 C-3.9375 0.3125 -3.9375 0.3125 0 0 Z " fill="#10082E" transform="translate(191.9375,362.6875)"/>
<path d="M0 0 C2.56231382 0.07919879 3.85022116 0.19671154 6.125 1.4375 C7.57566732 4.33883464 6.96701694 6.27590742 6.0625 9.3125 C2.59326119 11.62532587 1.14044425 11.73728586 -2.9375 11.3125 C-4.8125 10.1875 -4.8125 10.1875 -5.9375 8.3125 C-6.25 5.25 -6.25 5.25 -5.9375 2.3125 C-3.9375 0.3125 -3.9375 0.3125 0 0 Z " fill="#10082E" transform="translate(291.9375,122.6875)"/>
<path d="M0 0 C0.24492187 0.556875 0.48984375 1.11375 0.7421875 1.6875 C2.75112117 5.38094327 5.59368597 8.3798185 8.3203125 11.5625 C10 14 10 14 10 18 C7.33760228 17.92393149 5.57682564 17.50823016 3.5546875 15.7265625 C-0.53403185 10.75000695 -0.5651332 6.24158219 0 0 Z " fill="#1B1337" transform="translate(250,265)"/>
<path d="M0 0 C0.680625 0.28875 1.36125 0.5775 2.0625 0.875 C0.70397869 3.96193704 -0.78260953 5.96141734 -3.3125 8.1875 C-3.89773437 8.71988281 -4.48296875 9.25226563 -5.0859375 9.80078125 C-6.9375 10.875 -6.9375 10.875 -9.1640625 10.54296875 C-9.74929687 10.32253906 -10.33453125 10.10210937 -10.9375 9.875 C-10.21313567 5.5002207 -8.1153082 3.73712984 -4.79296875 1.00390625 C-2.9375 -0.125 -2.9375 -0.125 0 0 Z " fill="#181035" transform="translate(225.9375,247.125)"/>
<path d="M0 0 C0.680625 0.28875 1.36125 0.5775 2.0625 0.875 C0.65018539 4.23382075 -0.97118978 6.00829047 -3.875 8.1875 C-4.90947266 8.98607422 -4.90947266 8.98607422 -5.96484375 9.80078125 C-6.61582031 10.15527344 -7.26679688 10.50976562 -7.9375 10.875 C-8.9275 10.545 -9.9175 10.215 -10.9375 9.875 C-10.21313567 5.5002207 -8.1153082 3.73712984 -4.79296875 1.00390625 C-2.9375 -0.125 -2.9375 -0.125 0 0 Z " fill="#191136" transform="translate(235.9375,264.125)"/>
<path d="M0 0 C0 1.32 0 2.64 0 4 C-2.1875 5.921875 -2.1875 5.921875 -5 7.75 C-6.3921875 8.67039062 -6.3921875 8.67039062 -7.8125 9.609375 C-8.534375 10.06828125 -9.25625 10.5271875 -10 11 C-10.99 10.34 -11.98 9.68 -13 9 C-11.0649353 3.1948059 -5.82945544 0 0 0 Z " fill="#160F33" transform="translate(232,256)"/>
<path d="M0 0 C0 2.125 0 2.125 -1 5 C-3.42681278 7.37239994 -5.9809197 9.43759657 -9 11 C-9.99 10.67 -10.98 10.34 -12 10 C-11.43351673 6.52556925 -10.35584027 5.01266113 -7.6875 2.75 C-7.09324219 2.22921875 -6.49898437 1.7084375 -5.88671875 1.171875 C-4 0 -4 0 0 0 Z " fill="#130C31" transform="translate(245,270)"/>
<path d="M0 0 C0.99 0 1.98 0 3 0 C5.25 2.8125 5.25 2.8125 7 6 C6.67 6.99 6.34 7.98 6 9 C2.74456771 8.65120368 1.98126893 7.97866739 -0.25 5.4375 C-1.11625 4.2309375 -1.11625 4.2309375 -2 3 C-1.34 2.01 -0.68 1.02 0 0 Z " fill="#1E173A" transform="translate(245,279)"/>
<path d="M0 0 C0 0.99 0 1.98 0 3 C-5.61 2.67 -11.22 2.34 -17 2 C-17 1.67 -17 1.34 -17 1 C-11.30494264 0.3583034 -5.73266804 -0.12462322 0 0 Z " fill="#504B66" transform="translate(108,131)"/>
<path d="M0 0 C-0.33 0.99 -0.66 1.98 -1 3 C-6.28 2.67 -11.56 2.34 -17 2 C-17 1.67 -17 1.34 -17 1 C-11.30494264 0.3583034 -5.73266804 -0.12462322 0 0 Z " fill="#4E4964" transform="translate(438,371)"/>
<path d="M0 0 C-0.33 0.99 -0.66 1.98 -1 3 C-6.28 2.67 -11.56 2.34 -17 2 C-17 1.67 -17 1.34 -17 1 C-11.30494264 0.3583034 -5.73266804 -0.12462322 0 0 Z " fill="#4E4964" transform="translate(139,131)"/>
<path d="M0 0 C4 4.875 4 4.875 4 6 C1.69 6 -0.62 6 -3 6 C-1.125 1.125 -1.125 1.125 0 0 Z " fill="#1A1337" transform="translate(279,364)"/>
<path d="M0 0 C1.37562854 1.28965176 2.70766393 2.62689293 4 4 C4 4.66 4 5.32 4 6 C1.69 6 -0.62 6 -3 6 C-2.01 4.02 -1.02 2.04 0 0 Z " fill="#1A1337" transform="translate(69,124)"/>
<path d="M0 0 C0.66 0 1.32 0 2 0 C2.66 1.98 3.32 3.96 4 6 C2.02 6 0.04 6 -2 6 C-1.34 4.02 -0.68 2.04 0 0 Z " fill="#170F34" transform="translate(91,364)"/>
</svg>
